<?xml version="1.0" encoding="utf-8"?>
<!-- Generator: Adobe Illustrator 16.0.0, SVG Export Plug-In . SVG Version: 6.00 Build 0)  -->
<!DOCTYPE svg PUBLIC "-//W3C//DTD SVG 1.1//EN" "http://www.w3.org/Graphics/SVG/1.1/DTD/svg11.dtd">
<svg version="1.1" id="Livello_1" xmlns="http://www.w3.org/2000/svg" xmlns:xlink="http://www.w3.org/1999/xlink" x="0px" y="0px"
	 width="755px" height="131px" viewBox="47.445 208.141 755 131" enable-background="new 47.445 208.141 755 131"
	 xml:space="preserve">
<g enable-background="new    ">
	<path d="M165.766,249.71c0-1.896,0.041-3.464,0.124-4.701c0.082-1.237,0.484-2.196,1.207-2.877
		c0.721-0.681,1.917-1.154,3.588-1.423c1.67-0.268,4.092-0.401,7.269-0.401c0.701,0,1.423,0,2.165,0
		c0.743,0,1.567,0.021,2.475,0.062c0.659,0.041,1.351,0.072,2.072,0.093s1.495,0.031,2.32,0.031c0.619,0,1.247,0,1.887,0
		c0.639,0,1.309,0.021,2.011,0.062c1.072,0.041,2.298,0.072,3.681,0.093c1.381,0.021,2.711,0.052,3.99,0.093
		c2.227,0.041,4.443,0.217,6.65,0.525c2.206,0.31,4.526,0.815,6.959,1.516c2.268,0.784,4.505,1.825,6.712,3.124
		c2.206,1.3,4.196,2.732,5.97,4.3c1.979,1.773,3.743,3.825,5.289,6.155c1.546,2.33,2.855,4.939,3.928,7.825
		c2.268,5.938,3.423,13.218,3.464,21.837c-0.083,7.919-1.237,14.765-3.464,20.539s-5.485,10.478-9.774,14.104
		c-8.331,7.012-18.147,10.517-29.446,10.517h-25.549c-1.031,0-1.877-0.34-2.536-1.021c-0.66-0.681-0.99-1.494-0.99-2.443V249.71
		H165.766z M175.045,321.903h20.352c4.702,0,8.97-0.731,12.806-2.196c3.835-1.463,7.34-3.659,10.516-6.588
		c3.134-2.846,5.485-6.526,7.052-11.042c1.567-4.517,2.392-9.908,2.475-16.177c0-1.814-0.062-3.588-0.186-5.32
		s-0.289-3.423-0.495-5.073c-0.207-1.442-0.464-2.793-0.773-4.052c-0.31-1.257-0.691-2.483-1.145-3.681v0.063
		c-0.826-2.268-1.835-4.31-3.031-6.125c-1.197-1.814-2.454-3.381-3.773-4.701c-1.403-1.195-2.918-2.268-4.547-3.217
		c-1.63-0.948-3.29-1.711-4.98-2.289c-1.732-0.495-3.588-0.866-5.567-1.113s-3.959-0.371-5.939-0.371
		c-2.763,0-5.258-0.01-7.485-0.031c-2.227-0.021-4.228-0.051-6-0.093c-1.155-0.04-2.187-0.062-3.093-0.062c-0.908,0-1.732,0-2.475,0
		c-0.949,0-1.67,0.011-2.165,0.03c-0.495,0.021-0.856,0.042-1.083,0.063c-0.227,0.021-0.361,0.063-0.402,0.124
		c-0.042,0.062-0.062,0.154-0.062,0.278V321.903L175.045,321.903z"/>
	<path d="M245.443,285.961c0-6.598,0.897-12.64,2.691-18.125c1.794-5.484,4.443-10.434,7.949-14.848
		c7.216-9.361,17.63-14.124,31.24-14.289c6.887,0.083,12.949,1.32,18.187,3.711c5.237,2.393,9.691,5.898,13.362,10.517
		c6.969,8.95,10.455,19.961,10.455,33.034c0,6.228-0.928,12.146-2.784,17.754c-1.855,5.609-4.392,10.602-7.609,14.971
		c-3.629,4.496-8.114,8.021-13.455,10.578c-5.341,2.559-11.393,3.876-18.156,3.959c-6.929-0.083-12.971-1.34-18.125-3.771
		c-5.156-2.435-9.506-6-13.053-10.702C249.01,309.881,245.443,298.953,245.443,285.961z M263.692,258.309
		c-2.846,3.506-5.032,7.547-6.557,12.125c-1.526,4.578-2.351,9.754-2.475,15.527c0.124,5.774,0.948,10.939,2.475,15.496
		c1.525,4.558,3.711,8.589,6.557,12.094c5.526,6.849,13.403,10.313,23.631,10.396c5.155-0.041,9.691-0.918,13.609-2.63
		c3.917-1.711,7.3-4.319,10.145-7.825c2.97-3.505,5.186-7.536,6.65-12.095c1.463-4.558,2.237-9.703,2.32-15.436
		c-0.207-11.423-3.176-20.641-8.908-27.652v0.063c-2.805-3.217-6.228-5.732-10.269-7.548c-4.042-1.813-8.558-2.762-13.547-2.846
		c-5.156,0.084-9.682,0.99-13.579,2.723C269.848,252.432,266.497,254.969,263.692,258.309z"/>
	<path d="M339.225,249.71c0-1.896,0.041-3.464,0.124-4.701c0.082-1.237,0.484-2.196,1.207-2.877
		c0.721-0.681,1.917-1.154,3.588-1.423c1.67-0.268,4.092-0.401,7.269-0.401c0.701,0,1.423,0,2.165,0
		c0.743,0,1.567,0.021,2.475,0.062c0.659,0.041,1.351,0.072,2.072,0.093c0.721,0.021,1.495,0.031,2.32,0.031
		c0.619,0,1.247,0,1.887,0c0.639,0,1.309,0.021,2.011,0.062c1.072,0.041,2.298,0.072,3.681,0.093
		c1.381,0.021,2.711,0.052,3.99,0.093c2.227,0.041,4.443,0.217,6.65,0.525c2.206,0.31,4.526,0.815,6.959,1.516
		c2.268,0.784,4.505,1.825,6.712,3.124c2.206,1.3,4.196,2.732,5.97,4.3c1.979,1.773,3.743,3.825,5.289,6.155
		c1.546,2.33,2.855,4.939,3.929,7.825c2.268,5.938,3.423,13.218,3.464,21.837c-0.083,7.919-1.237,14.765-3.464,20.539
		c-2.228,5.773-5.485,10.478-9.774,14.104c-8.331,7.012-18.147,10.517-29.446,10.517h-25.549c-1.031,0-1.877-0.34-2.536-1.021
		c-0.66-0.681-0.99-1.494-0.99-2.443V249.71H339.225z M348.504,321.903h20.352c4.702,0,8.97-0.731,12.806-2.196
		c3.835-1.463,7.34-3.659,10.516-6.588c3.134-2.846,5.485-6.526,7.053-11.042c1.566-4.517,2.392-9.908,2.475-16.177
		c0-1.814-0.063-3.588-0.187-5.32s-0.288-3.423-0.494-5.073c-0.207-1.442-0.465-2.793-0.773-4.052
		c-0.31-1.257-0.691-2.483-1.146-3.681v0.063c-0.825-2.268-1.834-4.31-3.03-6.125c-1.197-1.814-2.454-3.381-3.773-4.701
		c-1.403-1.195-2.918-2.268-4.547-3.217c-1.63-0.948-3.29-1.711-4.98-2.289c-1.732-0.495-3.588-0.866-5.567-1.113
		s-3.959-0.371-5.939-0.371c-2.763,0-5.258-0.01-7.485-0.031c-2.227-0.021-4.228-0.051-6-0.093c-1.155-0.04-2.187-0.062-3.093-0.062
		c-0.908,0-1.732,0-2.475,0c-0.949,0-1.67,0.011-2.165,0.03c-0.495,0.021-0.856,0.042-1.083,0.063
		c-0.227,0.021-0.361,0.063-0.402,0.124c-0.042,0.062-0.062,0.154-0.062,0.278V321.903L348.504,321.903z"/>
	<path d="M418.903,285.961c0-6.598,0.896-12.64,2.69-18.125c1.795-5.484,4.443-10.434,7.949-14.848
		c7.217-9.361,17.631-14.124,31.24-14.289c6.887,0.083,12.949,1.32,18.188,3.711c5.236,2.393,9.691,5.898,13.361,10.517
		c6.969,8.95,10.455,19.961,10.455,33.034c0,6.228-0.928,12.146-2.783,17.754c-1.855,5.609-4.393,10.602-7.609,14.971
		c-3.629,4.496-8.113,8.021-13.455,10.578c-5.342,2.559-11.393,3.876-18.156,3.959c-6.928-0.083-12.971-1.34-18.125-3.771
		c-5.156-2.435-9.506-6-13.053-10.702C422.468,309.881,418.903,298.953,418.903,285.961z M437.152,258.309
		c-2.846,3.506-5.031,7.547-6.557,12.125c-1.527,4.578-2.352,9.754-2.475,15.527c0.123,5.774,0.947,10.939,2.475,15.496
		c1.523,4.558,3.711,8.589,6.557,12.094c5.525,6.849,13.402,10.313,23.631,10.396c5.156-0.041,9.691-0.918,13.609-2.63
		c3.918-1.711,7.301-4.319,10.146-7.825c2.969-3.505,5.186-7.536,6.648-12.095c1.465-4.558,2.236-9.703,2.318-15.436
		c-0.207-11.423-3.176-20.641-8.908-27.652v0.063c-2.805-3.217-6.227-5.732-10.27-7.548c-4.041-1.813-8.557-2.762-13.547-2.846
		c-5.156,0.084-9.684,0.99-13.578,2.723C443.306,252.432,439.957,254.969,437.152,258.309z"/>
</g>
<g enable-background="new    ">
	<path d="M515.22,240.741h2.537v41.386h0.246c1.238-5.113,3.898-9.32,7.979-12.62c4-3.258,9.154-4.907,15.469-4.949
		c6.969,0,12.533,1.979,16.699,5.938c4.207,4.043,6.354,9.878,6.436,17.507v43.18h-2.535v-42.809
		c-0.043-7.464-2.063-12.907-6.063-16.331c-4.002-3.299-8.85-4.949-14.537-4.949c-7.838,0.207-13.713,2.908-17.631,8.104
		c-4.043,5.361-6.064,11.733-6.064,19.115v36.869h-2.537v-90.439L515.22,240.741L515.22,240.741z"/>
	<path d="M575.103,298.643c0-9.235,2.535-17.177,7.609-23.814c4.988-6.682,12.248-10.104,21.773-10.27
		c9.564,0.165,16.848,3.588,21.838,10.27c4.949,6.64,7.424,14.579,7.424,23.814c0,9.115-2.475,17.014-7.424,23.693
		c-5.031,6.764-12.355,10.229-21.961,10.395c-9.402-0.166-16.621-3.631-21.65-10.395
		C577.638,315.655,575.103,307.758,575.103,298.643z M577.638,298.643c0,8.496,2.33,15.798,6.99,21.898
		c4.455,6.27,11.074,9.486,19.857,9.65c8.781-0.164,15.467-3.383,20.045-9.65c4.494-6.021,6.74-13.32,6.74-21.898
		c0-8.495-2.246-15.813-6.74-21.959c-4.537-6.187-11.223-9.382-20.045-9.589c-8.824,0.207-15.443,3.402-19.857,9.589
		C579.968,282.91,577.638,290.23,577.638,298.643z"/>
	<path d="M644.326,266.042h2.537v16.084h0.246c1.277-5.113,3.814-9.32,7.609-12.62c3.67-3.258,8.063-4.907,13.176-4.949
		c10.434,0.083,16.93,5.156,19.486,15.218h0.248c0.701-2.391,1.711-4.516,3.031-6.371c1.359-1.856,2.928-3.423,4.701-4.702
		c3.713-2.722,8.02-4.103,12.93-4.145c7.711,0.042,13.154,2.228,16.332,6.558c2.969,4.29,4.412,10.043,4.33,17.259v42.809h-2.537
		v-42.809c0.041-6.474-1.197-11.67-3.711-15.589c-2.602-3.712-7.404-5.607-14.414-5.691c-6.436,0.042-11.383,2.311-14.848,6.805
		c-3.549,4.414-5.402,9.734-5.566,15.961v41.323h-2.537v-41.816c0.248-6.227-0.805-11.465-3.154-15.713
		c-1.32-2.062-3.094-3.67-5.32-4.825c-2.311-1.154-5.299-1.732-8.969-1.732c-6.559,0.207-11.672,2.908-15.344,8.104
		c-3.793,5.361-5.689,11.733-5.689,19.115v36.869h-2.537V266.042L644.326,266.042z"/>
	<path d="M741.572,299.139c0.041,8.907,2.063,16.248,6.063,22.021c4.041,5.979,10.602,8.991,19.672,9.031
		c14.105-0.04,22.58-7.237,25.43-21.591h2.533c-0.986,7.549-3.938,13.426-8.848,17.632c-5.031,4.29-11.318,6.453-18.867,6.494
		c-9.979-0.082-17.193-3.341-21.648-9.772c-4.66-6.353-6.949-14.454-6.867-24.313c0.166-11.012,3.135-19.425,8.908-25.239
		c5.523-5.897,12.063-8.847,19.607-8.847c10.146,0.207,17.527,3.712,22.146,10.517c4.66,6.805,6.783,14.826,6.371,24.063
		L741.572,299.139L741.572,299.139z M793.537,296.602c0.082-8.33-2.043-15.301-6.373-20.909c-4.412-5.691-10.867-8.558-19.361-8.6
		c-7.094,0.042-13.096,2.66-18.002,7.856c-4.826,5.196-7.564,12.414-8.229,21.652L793.537,296.602L793.537,296.602z"/>
</g>
<polygon points="127.003,238.424 102.122,212.468 77.24,238.424 52.359,264.377 61.278,264.377 61.278,331.183 142.968,331.183 
	142.968,264.377 151.885,264.377 "/>
<g enable-background="new    ">
	<path fill="#F7941E" d="M72.188,295.771c-0.287-0.13-0.561-0.403-0.821-0.82c-0.261-0.416-0.391-0.795-0.391-1.134v-1.719
		c0-0.287,0.124-0.632,0.371-1.036c0.248-0.403,0.514-0.696,0.801-0.879l36.5-17.82c0.391-0.182,0.768-0.267,1.133-0.254
		c0.365,0.014,0.69,0.111,0.977,0.293c0.287,0.183,0.521,0.437,0.704,0.762c0.182,0.326,0.273,0.697,0.273,1.114v1.484
		c0,0.34-0.131,0.704-0.391,1.095c-0.261,0.391-0.547,0.664-0.86,0.82c-5.263,2.579-10.46,5.126-15.593,7.641
		c-5.133,2.515-10.343,5.061-15.632,7.64c5.237,2.554,10.447,5.106,15.632,7.659c5.184,2.554,10.382,5.107,15.593,7.66
		c0.313,0.155,0.599,0.437,0.86,0.84c0.26,0.404,0.391,0.763,0.391,1.075v1.522c0,0.417-0.092,0.789-0.273,1.114
		c-0.183,0.326-0.417,0.579-0.704,0.762c-0.287,0.183-0.612,0.28-0.977,0.293c-0.365,0.014-0.742-0.071-1.133-0.254L72.188,295.771z
		"/>
</g>
<circle fill="#FFFFFF" cx="129.175" cy="286.045" r="6.475"/>
</svg>
