<?xml version="1.0" encoding="utf-8"?>
<!-- Generator: Adobe Illustrator 16.0.0, SVG Export Plug-In . SVG Version: 6.00 Build 0)  -->
<!DOCTYPE svg PUBLIC "-//W3C//DTD SVG 1.1//EN" "http://www.w3.org/Graphics/SVG/1.1/DTD/svg11.dtd">
<svg version="1.1" id="Livello_1" xmlns="http://www.w3.org/2000/svg" xmlns:xlink="http://www.w3.org/1999/xlink" x="0px" y="0px"
	 width="119.715px" height="77.337px" viewBox="15.957 10.975 119.715 77.337"
	 enable-background="new 15.957 10.975 119.715 77.337" xml:space="preserve">
<g>
	<g>
		<path fill="#F7941E" d="M18.199,54.78c-0.531-0.241-1.037-0.747-1.519-1.52c-0.483-0.771-0.724-1.471-0.724-2.099v-3.183
			c0-0.53,0.229-1.17,0.688-1.918c0.457-0.746,0.951-1.289,1.482-1.627l67.565-32.986c0.725-0.338,1.422-0.494,2.098-0.471
			c0.676,0.024,1.277,0.205,1.809,0.543s0.966,0.808,1.304,1.41c0.337,0.604,0.506,1.291,0.506,2.062v2.749
			c0,0.627-0.241,1.303-0.723,2.025c-0.483,0.724-1.015,1.229-1.593,1.52c-9.741,4.773-19.362,9.488-28.863,14.143
			c-9.501,4.655-19.146,9.367-28.936,14.144c9.693,4.728,19.339,9.452,28.936,14.178c9.597,4.728,19.218,9.453,28.863,14.181
			c0.578,0.289,1.108,0.808,1.593,1.555c0.481,0.748,0.723,1.41,0.723,1.988v2.821c0,0.771-0.169,1.459-0.506,2.062
			c-0.338,0.604-0.772,1.074-1.304,1.412c-0.53,0.336-1.133,0.518-1.809,0.541c-0.676,0.024-1.373-0.133-2.098-0.469L18.199,54.78z"
			/>
	</g>
	<circle cx="123.687" cy="36.776" r="11.986"/>
</g>
</svg>
